<svg width="376" height="30" viewBox="0 0 376 30" fill="none" xmlns="http://www.w3.org/2000/svg">
<path d="M5.17969 0H15.1151L13.3898 9.78448H3.45442L5.17969 0Z" fill="#0F0F0F"/>
<path d="M3.45447 9.78418H13.3899L11.6646 19.5687H1.7292L3.45447 9.78418Z" fill="white"/>
<path d="M1.72913 19.5693H11.6645L9.93928 29.3538H0.00385802L1.72913 19.5693Z" fill="#0F0F0F"/>
<path d="M15.1151 0H25.0505L23.3253 9.78448H13.3898L15.1151 0Z" fill="white"/>
<path d="M13.3899 9.78418H23.3253L21.6 19.5687H11.6646L13.3899 9.78418Z" fill="#0F0F0F"/>
<path d="M11.6646 19.5693H21.6L19.8747 29.3538H9.93928L11.6646 19.5693Z" fill="white"/>
<path d="M25.0505 0H34.986L33.2607 9.78448H23.3253L25.0505 0Z" fill="#0F0F0F"/>
<path d="M23.3253 9.78418H33.2607L31.5355 19.5687H21.6L23.3253 9.78418Z" fill="white"/>
<path d="M21.6 19.5693H31.5354L29.8101 29.3538H19.8747L21.6 19.5693Z" fill="#0F0F0F"/>
<path d="M34.986 0H44.9214L43.1961 9.78448H33.2607L34.986 0Z" fill="white"/>
<path d="M33.2607 9.78418H43.1962L41.4709 19.5687H31.5355L33.2607 9.78418Z" fill="#0F0F0F"/>
<path d="M31.5354 19.5693H41.4708L39.7456 29.3538H29.8101L31.5354 19.5693Z" fill="white"/>
<path d="M44.9214 0H54.8568L53.1315 9.78448H43.1961L44.9214 0Z" fill="#0F0F0F"/>
<path d="M43.1962 9.78418H53.1316L51.4063 19.5687H41.4709L43.1962 9.78418Z" fill="white"/>
<path d="M41.4708 19.5693H51.4062L49.681 29.3538H39.7456L41.4708 19.5693Z" fill="#0F0F0F"/>
<path d="M54.8568 0H64.7922L63.067 9.78448H53.1315L54.8568 0Z" fill="white"/>
<path d="M53.1316 9.78418H63.067L61.3417 19.5687H51.4063L53.1316 9.78418Z" fill="#0F0F0F"/>
<path d="M51.4062 19.5693H61.3417L59.6164 29.3538H49.681L51.4062 19.5693Z" fill="white"/>
<path d="M64.7922 0H74.7277L73.0024 9.78448H63.067L64.7922 0Z" fill="#0F0F0F"/>
<path d="M63.067 9.78418H73.0024L71.2772 19.5687H61.3417L63.067 9.78418Z" fill="white"/>
<path d="M61.3417 19.5693H71.2771L69.5518 29.3538H59.6164L61.3417 19.5693Z" fill="#0F0F0F"/>
<path d="M74.7277 0H84.6631L82.9378 9.78448H73.0024L74.7277 0Z" fill="white"/>
<path d="M73.0024 9.78418H82.9379L81.2126 19.5687H71.2772L73.0024 9.78418Z" fill="#0F0F0F"/>
<path d="M71.2771 19.5693H81.2125L79.4873 29.3538H69.5518L71.2771 19.5693Z" fill="white"/>
<path d="M84.6631 0H94.5985L92.8732 9.78448H82.9378L84.6631 0Z" fill="#0F0F0F"/>
<path d="M82.9379 9.78418H92.8733L91.148 19.5687H81.2126L82.9379 9.78418Z" fill="white"/>
<path d="M81.2125 19.5693H91.1479L89.4227 29.3538H79.4873L81.2125 19.5693Z" fill="#0F0F0F"/>
<path d="M94.5985 0H104.534L102.809 9.78448H92.8732L94.5985 0Z" fill="white"/>
<path d="M92.8733 9.78418H102.809L101.083 19.5687H91.148L92.8733 9.78418Z" fill="#0F0F0F"/>
<path d="M91.1479 19.5693H101.083L99.3581 29.3538H89.4227L91.1479 19.5693Z" fill="white"/>
<path d="M104.534 0H114.469L112.744 9.78448H102.809L104.534 0Z" fill="#0F0F0F"/>
<path d="M102.809 9.78418H112.744L111.019 19.5687H101.083L102.809 9.78418Z" fill="white"/>
<path d="M101.083 19.5693H111.019L109.294 29.3538H99.3581L101.083 19.5693Z" fill="#0F0F0F"/>
<path d="M114.469 0H124.405L122.68 9.78448H112.744L114.469 0Z" fill="white"/>
<path d="M112.744 9.78418H122.68L120.954 19.5687H111.019L112.744 9.78418Z" fill="#0F0F0F"/>
<path d="M111.019 19.5693H120.954L119.229 29.3538H109.294L111.019 19.5693Z" fill="white"/>
<path d="M124.405 0H134.34L132.615 9.78448H122.68L124.405 0Z" fill="#0F0F0F"/>
<path d="M122.68 9.78418H132.615L130.89 19.5687H120.954L122.68 9.78418Z" fill="white"/>
<path d="M120.954 19.5693H130.89L129.164 29.3538H119.229L120.954 19.5693Z" fill="#0F0F0F"/>
<path d="M134.34 0H144.276L142.55 9.78448H132.615L134.34 0Z" fill="white"/>
<path d="M132.615 9.78418H142.55L140.825 19.5687H130.89L132.615 9.78418Z" fill="#0F0F0F"/>
<path d="M130.89 19.5693H140.825L139.1 29.3538H129.164L130.89 19.5693Z" fill="white"/>
<path d="M144.276 0H154.211L152.486 9.78448H142.55L144.276 0Z" fill="#0F0F0F"/>
<path d="M142.55 9.78418H152.486L150.761 19.5687H140.825L142.55 9.78418Z" fill="white"/>
<path d="M140.825 19.5693H150.76L149.035 29.3538H139.1L140.825 19.5693Z" fill="#0F0F0F"/>
<path d="M154.211 0H164.146L162.421 9.78448H152.486L154.211 0Z" fill="white"/>
<path d="M152.486 9.78418H162.421L160.696 19.5687H150.761L152.486 9.78418Z" fill="#0F0F0F"/>
<path d="M150.76 19.5693H160.696L158.971 29.3538H149.035L150.76 19.5693Z" fill="white"/>
<path d="M164.146 0H174.082L172.357 9.78448H162.421L164.146 0Z" fill="#0F0F0F"/>
<path d="M162.421 9.78418H172.357L170.631 19.5687H160.696L162.421 9.78418Z" fill="white"/>
<path d="M160.696 19.5693H170.631L168.906 29.3538H158.971L160.696 19.5693Z" fill="#0F0F0F"/>
<path d="M174.082 0H184.017L182.292 9.78448H172.357L174.082 0Z" fill="white"/>
<path d="M172.357 9.78418H182.292L180.567 19.5687H170.631L172.357 9.78418Z" fill="#0F0F0F"/>
<path d="M170.631 19.5693H180.567L178.842 29.3538H168.906L170.631 19.5693Z" fill="white"/>
<path d="M184.017 0H193.953L192.227 9.78448H182.292L184.017 0Z" fill="#0F0F0F"/>
<path d="M182.292 9.78418H192.228L190.502 19.5687H180.567L182.292 9.78418Z" fill="white"/>
<path d="M180.567 19.5693H190.502L188.777 29.3538H178.842L180.567 19.5693Z" fill="#0F0F0F"/>
<path d="M193.953 0H203.888L202.163 9.78448H192.227L193.953 0Z" fill="white"/>
<path d="M192.228 9.78418H202.163L200.438 19.5687H190.502L192.228 9.78418Z" fill="#0F0F0F"/>
<path d="M190.502 19.5693H200.438L198.712 29.3538H188.777L190.502 19.5693Z" fill="white"/>
<path d="M203.888 0H213.824L212.098 9.78448H202.163L203.888 0Z" fill="#0F0F0F"/>
<path d="M202.163 9.78418H212.098L210.373 19.5687H200.438L202.163 9.78418Z" fill="white"/>
<path d="M200.438 19.5693H210.373L208.648 29.3538H198.712L200.438 19.5693Z" fill="#0F0F0F"/>
<path d="M213.824 0H223.759L222.034 9.78448H212.098L213.824 0Z" fill="white"/>
<path d="M212.098 9.78418H222.034L220.309 19.5687H210.373L212.098 9.78418Z" fill="#0F0F0F"/>
<path d="M210.373 19.5693H220.308L218.583 29.3538H208.648L210.373 19.5693Z" fill="white"/>
<path d="M223.759 0H233.694L231.969 9.78448H222.034L223.759 0Z" fill="#0F0F0F"/>
<path d="M222.034 9.78418H231.969L230.244 19.5687H220.309L222.034 9.78418Z" fill="white"/>
<path d="M220.308 19.5693H230.244L228.519 29.3538H218.583L220.308 19.5693Z" fill="#0F0F0F"/>
<path d="M233.694 0H243.63L241.905 9.78448H231.969L233.694 0Z" fill="white"/>
<path d="M231.969 9.78418H241.905L240.179 19.5687H230.244L231.969 9.78418Z" fill="#0F0F0F"/>
<path d="M230.244 19.5693H240.179L238.454 29.3538H228.519L230.244 19.5693Z" fill="white"/>
<g filter="url(#filter0_d_2141_221)">
<path d="M350.211 0H372.976L371.914 4.99331H356.324L354.899 11.696H368.972L367.911 16.6893H353.838L352.241 24.2018H368.292L367.23 29.1951H344.005L350.211 0Z" fill="white"/>
<path d="M316.453 0H323.72L326.759 23.3471H326.943L339.908 0H346.99L329.747 29.1951H320.963L316.453 0Z" fill="white"/>
<path d="M306.062 0H313.237L307.031 29.1951H299.857L306.062 0Z" fill="white"/>
<path d="M275.336 0H288.765C292.751 0 295.531 0.479838 297.105 1.43951C298.686 2.3692 299.24 3.94366 298.768 6.16291L297.678 11.2912C297.315 13.0006 296.4 14.3501 294.932 15.3398C293.502 16.2995 291.731 16.9143 289.619 17.1842L295.712 29.1951H287.434L282.054 17.724H278.743L276.305 29.1951H269.13L275.336 0ZM285.89 13.0906C287.577 13.0906 288.771 12.8806 289.474 12.4608C290.182 12.0109 290.671 11.1562 290.938 9.89665L291.378 7.82735C291.608 6.74771 291.427 6.01296 290.835 5.6231C290.28 5.20324 289.206 4.99331 287.612 4.99331H281.449L279.728 13.0906H285.89Z" fill="white"/>
<path d="M242.688 0H255.381C258.876 0 261.578 0.269908 263.487 0.809726C265.402 1.31955 266.698 2.21925 267.374 3.50881C268.05 4.79838 268.146 6.58277 267.662 8.862L265.138 20.738C264.666 22.9572 263.855 24.6816 262.704 25.9112C261.56 27.1108 259.922 27.9655 257.79 28.4754C255.665 28.9552 252.808 29.1951 249.221 29.1951H236.482L242.688 0ZM249.96 24.2018C251.923 24.2018 253.41 24.1268 254.423 23.9769C255.473 23.7969 256.264 23.467 256.795 22.9872C257.357 22.5074 257.746 21.7576 257.963 20.738L260.516 8.72704C260.809 7.34751 260.446 6.38783 259.426 5.84802C258.444 5.27821 256.726 4.99331 254.273 4.99331H248.801L244.718 24.2018H249.96Z" fill="white"/>
</g>
<defs>
<filter id="filter0_d_2141_221" x="236.482" y="0" width="139.413" height="29.1953" filterUnits="userSpaceOnUse" color-interpolation-filters="sRGB">
<feFlood flood-opacity="0" result="BackgroundImageFix"/>
<feColorMatrix in="SourceAlpha" type="matrix" values="0 0 0 0 0 0 0 0 0 0 0 0 0 0 0 0 0 0 127 0" result="hardAlpha"/>
<feOffset dx="2.91951"/>
<feComposite in2="hardAlpha" operator="out"/>
<feColorMatrix type="matrix" values="0 0 0 0 0.00784314 0 0 0 0 0.00784314 0 0 0 0 0.105882 0 0 0 0.55 0"/>
<feBlend mode="normal" in2="BackgroundImageFix" result="effect1_dropShadow_2141_221"/>
<feBlend mode="normal" in="SourceGraphic" in2="effect1_dropShadow_2141_221" result="shape"/>
</filter>
</defs>
</svg>
