<svg width="252" height="111" viewBox="0 0 252 111" fill="none" xmlns="http://www.w3.org/2000/svg">
<g clip-path="url(#clip0_82_10327)">
<mask id="mask0_82_10327" style="mask-type:luminance" maskUnits="userSpaceOnUse" x="0" y="0" width="252" height="111">
<path d="M246.966 12.0919V75.6186C246.952 77.7888 246.465 79.9302 245.54 81.8958C244.614 83.8614 243.272 85.6046 241.604 87.0058C247.472 86.1946 251.988 81.4099 251.988 75.6186V12.0919C251.988 6.30061 247.484 1.5219 241.622 0.704722C243.287 2.10656 244.627 3.85033 245.55 5.81607C246.472 7.78181 246.955 9.92286 246.966 12.0919ZM29.1915 5.44749e-05C21.4577 0.0126051 14.045 3.07515 8.58079 8.5153C3.11663 13.9554 0.0476493 21.3285 0.0476596 29.0158L0 110.372C0.0135908 110.501 0.069201 110.622 0.158328 110.716C0.247455 110.81 0.365195 110.873 0.493546 110.894C0.621896 110.916 0.753795 110.895 0.869075 110.835C0.984355 110.775 1.07667 110.679 1.13191 110.562C2.89629 103.84 6.85452 97.89 12.3863 93.6442C17.918 89.3985 24.7106 87.0971 31.6996 87.1006H229.648C232.734 87.0912 235.691 85.8663 237.871 83.6942C240.05 81.5221 241.275 78.5799 241.277 75.512V11.5945C241.277 10.0692 240.975 8.55872 240.387 7.14973C239.8 5.74074 238.938 4.46095 237.851 3.38376C236.765 2.30657 235.475 1.45318 234.056 0.872523C232.637 0.291869 231.117 -0.00462223 229.582 5.44749e-05H29.1915Z" fill="white"/>
</mask>
<g mask="url(#mask0_82_10327)">
<path d="M252 0H0V111.213H252V0Z" fill="url(#paint0_linear_82_10327)"/>
<path d="M252 0H0V111.213H252V0Z" fill="white"/>
</g>
<path d="M223.37 68.3481C221.583 68.5139 219.301 68.3895 217.919 67.0927C217.361 66.5661 216.933 65.9173 216.67 65.1978C216.407 64.4783 216.317 63.7078 216.406 62.9476L216.311 36.3005C216.328 36.1483 216.312 35.9943 216.264 35.8489C216.216 35.7035 216.137 35.57 216.032 35.4576C215.928 35.3453 215.8 35.2566 215.658 35.1977C215.516 35.1387 215.363 35.1109 215.209 35.1161H210.24C210.147 35.1088 210.056 35.0828 209.972 35.0399C209.889 34.9969 209.815 34.9379 209.755 34.8661C209.695 34.7944 209.65 34.7114 209.623 34.6222C209.596 34.5329 209.587 34.4391 209.597 34.3463C209.597 33.991 209.597 33.4818 209.597 33.162C209.583 32.9597 209.649 32.7599 209.78 32.6044C209.911 32.4488 210.097 32.3495 210.3 32.3271H222.256C223.644 32.3271 224.472 32.5639 224.443 31.0658V28.9695C224.443 28.0399 224.026 27.8977 223.114 27.9214H217.157C217.119 27.9172 217.081 27.9172 217.044 27.9214C216.876 27.9371 216.709 27.8888 216.577 27.7866C216.444 27.6843 216.355 27.5356 216.329 27.3707L216.162 16.9191V16.1553C216.078 15.7644 215.834 15.5631 215.25 15.5927H212.409C212.275 15.5906 212.141 15.6025 212.01 15.6282H211.944C211.884 15.6462 211.828 15.6742 211.777 15.7111C211.699 15.7549 211.632 15.8156 211.581 15.8888C211.545 16.0013 211.503 16.1138 211.461 16.2204C209.037 23.0302 203.383 27.655 196.639 28.3774H196.538C196.038 28.4425 195.77 28.6794 195.781 29.4966V31.3856C195.781 32.0547 196.032 32.2679 196.55 32.3152H202.263V63.0246C202.007 65.4346 201.215 72.7656 213.475 72.7715C215.92 72.7858 218.364 72.6731 220.797 72.4339C221.762 72.3451 222.65 72.2445 223.096 72.1675C223.2 72.1533 223.3 72.1233 223.394 72.0787C223.615 71.9815 223.791 71.8063 223.889 71.5872L224.133 69.26C224.222 68.727 224.097 68.5612 223.942 68.4369C223.855 68.3803 223.758 68.3416 223.655 68.3233C223.553 68.305 223.448 68.3074 223.347 68.3303M124.387 31.1132C131.387 30.9947 132.162 37.6269 132.055 43.43L131.977 47.5752L116.172 47.7528L116.25 43.6728C116.321 38.3493 117.286 31.2316 124.387 31.1132ZM175.026 42.4293C168.854 41.1029 163.54 39.9718 163.617 35.7498C163.653 33.9733 164.809 31.0599 171.993 30.8645C172.83 30.8496 173.667 30.8772 174.501 30.9474C175.377 31.0125 176.211 31.125 177.015 31.2612L177.337 31.3204L177.867 31.427C178.588 31.5869 179.285 31.7705 179.958 31.9718C180.632 32.1731 181.746 32.6054 182.89 33.014L185.797 34.0562C185.851 34.0856 185.906 34.1113 185.964 34.1332C186.649 34.3582 187.185 34.7253 187.572 34.524C187.745 34.465 187.894 34.3515 187.996 34.2008C188.098 34.0502 188.148 33.8705 188.138 33.689C188.138 33.689 188.138 33.5588 188.138 33.3811C188.138 33.2035 188.138 32.8186 188.138 32.333C188.138 31.8474 188.138 31.3915 188.138 31.279C188.138 31.1665 188.138 30.9829 188.138 30.971C188.159 30.7948 188.117 30.6169 188.021 30.4678C187.924 30.3187 187.778 30.2077 187.608 30.1539C186.521 29.6747 185.41 29.2536 184.278 28.8926C179.891 27.4746 175.308 26.7454 170.695 26.7312C170.397 26.7312 170.099 26.7312 169.843 26.7726C158.44 27.3648 153.162 33.689 153.073 39.8653C152.882 50.453 162.402 52.5967 170.796 54.4975C177.123 55.9187 182.592 57.1503 182.508 61.7929C182.443 65.2451 179.238 67.6138 174.227 68.0164V67.9513C173.56 68.0046 172.899 68.0401 172.226 68.052C171.987 68.052 171.755 68.052 171.523 68.052C171.153 68.052 170.79 68.0164 170.427 67.9928C169.89 67.9928 169.366 67.9454 168.848 67.9099C168.073 67.8506 167.329 67.7559 166.602 67.6375C166.352 67.596 166.095 67.5605 165.845 67.5131L165.625 67.4657C164.803 67.2999 163.993 67.0986 163.2 66.8736L160.114 65.7781C156.546 64.3039 153.395 61.9818 150.94 59.0156C150.866 58.9207 150.771 58.844 150.663 58.7916C150.554 58.7392 150.435 58.7125 150.314 58.7136C150.184 58.7182 150.056 58.7526 149.942 58.8143C149.827 58.8759 149.728 58.9631 149.653 59.0689C147.195 62.1004 144.071 64.5313 140.52 66.1748C138.775 66.8499 136.946 67.5486 136.684 67.6434H136.618C136.386 67.7144 136.153 67.7796 135.915 67.8388L135.224 68.0224L134.628 68.1645L133.681 68.3599L133.288 68.431C132.847 68.5079 132.4 68.579 131.953 68.6323H131.876C130.826 68.7596 129.77 68.8327 128.713 68.8514C128.057 68.8514 127.42 68.8514 126.782 68.8159C119.473 68.2711 115.838 63.7233 115.993 55.2554L116.053 51.9038L142.164 51.5604C143.791 51.5604 146.704 51.5604 147.318 49.7306L147.389 48.8128C146.752 32.8245 134.801 27.3174 124.429 27.4951C114.665 27.655 100.808 34.9918 100.516 50.8143C100.206 67.7204 113.67 73.4998 126.371 73.3163C129.069 73.2691 131.758 72.9918 134.408 72.4872C139.882 71.552 145.118 69.5582 149.82 66.619C149.965 66.4875 150.154 66.4146 150.35 66.4146C150.546 66.4146 150.735 66.4875 150.88 66.619C156.927 70.3436 165.089 72.5405 174.114 72.4043V72.3333C185.672 72.0017 193.22 66.1748 193.375 57.4109C193.649 46.4086 183.753 44.3005 175.014 42.4293H175.026ZM101.749 18.6186C101.862 18.2041 101.975 17.7008 102.029 17.4935C102.026 17.464 102.026 17.4342 102.029 17.4047C102.055 17.3344 102.069 17.2604 102.071 17.1856C102.068 17.0531 102.031 16.9235 101.964 16.8087C101.898 16.6939 101.803 16.5975 101.69 16.5283C101.639 16.4742 101.577 16.4322 101.508 16.4056C101.439 16.3789 101.364 16.3682 101.29 16.3744H96.7329C96.6295 16.3721 96.5267 16.3915 96.4312 16.4313C96.3358 16.4711 96.2498 16.5304 96.1789 16.6053V16.6349C96.1304 16.6968 96.0866 16.7621 96.0478 16.8303V16.8895C95.8572 17.2981 95.7738 17.9199 95.5355 18.6246L84.961 52.2769L71.2589 17.1382C71.1688 16.8978 71.0057 16.6911 70.7922 16.5469C70.5788 16.4026 70.3255 16.3278 70.0674 16.3329H55.847C55.7396 16.3313 55.6329 16.351 55.5333 16.3908C55.4336 16.4305 55.3429 16.4896 55.2663 16.5645C55.1898 16.6395 55.1291 16.7288 55.0876 16.8273C55.0462 16.9258 55.0248 17.0315 55.0248 17.1382C55.0244 17.2469 55.0489 17.3542 55.0963 17.4521C55.4061 18.3581 55.8231 19.5424 55.9483 19.8858C56.0734 20.2293 60.5831 32.1672 60.5831 32.1672L52.5882 54.3554L37.5993 17.1086C37.5085 16.8687 37.3452 16.6625 37.1319 16.5183C36.9186 16.3742 36.6657 16.2991 36.4078 16.3033H17.8087C17.4927 16.3033 17.1896 16.4281 16.9662 16.6502C16.7427 16.8723 16.6172 17.1735 16.6172 17.4876V17.5409C16.6172 17.5883 16.6172 17.6297 16.6172 17.6889C16.6172 17.7482 16.6172 18.6423 16.6172 18.7134V18.743V18.8022C16.6326 19.1227 16.7719 19.4248 17.0062 19.6455C17.2404 19.8662 17.5514 19.9884 17.8742 19.9865H18.0351C18.184 19.9865 18.3389 19.9865 18.5057 19.9865H20.2929C20.9011 20.0013 21.4925 20.1872 21.9986 20.5226C22.5048 20.858 22.9049 21.3292 23.1525 21.8814C27.2334 34.0562 32.2734 45.9467 38.5763 62.7877L41.704 71.3029C41.8022 71.5346 41.9685 71.7315 42.181 71.8678C42.3936 72.0041 42.6426 72.0734 42.8955 72.0668H52.3261C52.5702 72.0709 52.8096 72.0004 53.0121 71.8649C53.2145 71.7293 53.3702 71.5352 53.458 71.3088L63.544 41.1502L72.4802 65.6478H72.5159L74.5295 71.1016C74.5929 71.3702 74.7444 71.6103 74.9601 71.7839C75.1758 71.9576 75.4435 72.055 75.721 72.0609H84.4785C84.7219 72.0626 84.9604 71.9919 85.1631 71.8578C85.3659 71.7238 85.5237 71.5327 85.6163 71.3088L86.3193 69.0409C86.3613 68.9365 86.3971 68.8297 86.4266 68.7211L86.498 68.4665L86.6351 68.0342C90.6742 53.4494 98.4249 31.883 101.719 18.6186H101.749Z" fill="black"/>
</g>
<defs>
<linearGradient id="paint0_linear_82_10327" x1="0" y1="55.6096" x2="252" y2="55.6096" gradientUnits="userSpaceOnUse">
<stop stop-color="#063658"/>
<stop offset="0.1" stop-color="#063658"/>
<stop offset="1" stop-color="#0088CE"/>
</linearGradient>
<clipPath id="clip0_82_10327">
<rect width="252" height="111" fill="white"/>
</clipPath>
</defs>
</svg>
