<svg width="128" height="36" viewBox="0 0 128 36" fill="none" xmlns="http://www.w3.org/2000/svg">
<path d="M126.412 32.6112H126.404C125.31 32.7129 123.922 32.6366 123.079 31.8406C122.483 31.2663 122.036 30.4013 122.156 29.2854L122.101 12.9186C122.13 12.5224 121.832 12.2062 121.425 12.2062H119.804H118.455C118.434 12.2062 118.412 12.2062 118.394 12.2062V12.1953C118.154 12.1662 117.979 11.9699 118.001 11.7228C117.997 11.5047 117.99 11.1921 117.99 10.9886C117.99 10.7305 118.197 10.5197 118.455 10.5088L125.75 10.5161H125.743C126.59 10.5161 127.095 10.6615 127.077 9.7419L127.059 8.45524C127.048 7.88459 126.804 7.79736 126.248 7.8119V7.801H122.628C122.606 7.801 122.588 7.79009 122.559 7.79009C122.159 7.78646 122.123 7.45207 122.123 7.45207H122.119L122.017 1.0369L122.01 0.568034C121.956 0.331781 121.81 0.219107 121.454 0.222741H119.72C119.622 0.222741 119.546 0.230011 119.473 0.24455L119.437 0.255453C119.397 0.266357 119.368 0.284531 119.335 0.302704C119.288 0.331782 119.244 0.368128 119.215 0.411744C119.193 0.480802 119.168 0.546226 119.142 0.615284C117.659 4.79514 114.214 7.6338 110.099 8.07723C110.078 8.07723 110.059 8.07723 110.038 8.08087C109.732 8.12085 109.569 8.26623 109.576 8.76782L109.594 9.92727C109.601 10.338 109.747 10.4688 110.067 10.4979L113.552 10.5088L113.56 29.3581C113.403 30.8374 112.916 35.3335 120.4 35.3408C122.054 35.3408 123.584 35.2681 124.867 35.1336C125.456 35.0791 125.997 35.0173 126.27 34.97C126.335 34.9628 126.394 34.941 126.452 34.9155C126.557 34.861 126.692 34.7738 126.753 34.6138L126.906 33.1854C126.957 32.8619 126.884 32.7602 126.79 32.6802C126.706 32.6075 126.579 32.6003 126.423 32.6148M66.0328 9.76008C70.3035 9.68738 70.776 13.7582 70.7106 17.3202L70.6634 19.879H70.6488L61.0097 19.988L61.057 17.4837C61.1151 14.2016 61.7003 9.83277 66.0328 9.76008ZM96.9201 16.7095C93.1546 15.8954 89.9125 15.2012 89.9598 12.6096C89.9816 11.5229 90.6831 9.731 95.0701 9.60742C95.5971 9.59652 96.1096 9.61833 96.6003 9.65831C97.1346 9.69829 97.6434 9.76735 98.1305 9.85094C98.1995 9.86185 98.2613 9.87639 98.3267 9.88729C98.4358 9.9091 98.5448 9.93091 98.6502 9.95271C99.0937 10.0509 99.5189 10.1599 99.926 10.2835C100.315 10.418 101.013 10.6724 101.711 10.9232C102.408 11.174 103.106 11.4248 103.484 11.5665C103.517 11.5847 103.553 11.5992 103.586 11.6138C104 11.7519 104.328 11.9663 104.567 11.8536C104.767 11.7737 104.905 11.6283 104.909 11.3412C104.909 11.3302 104.909 11.2576 104.909 11.1522C104.913 11.0831 104.916 10.8069 104.924 10.5088C104.927 10.2071 104.935 9.93091 104.935 9.86185C104.935 9.75281 104.935 9.68012 104.935 9.67285C104.935 9.38934 104.807 9.24396 104.611 9.1749C104.2 8.98953 103.506 8.70239 102.579 8.39708C100.678 7.77556 97.7852 7.08134 94.2923 7.07043C94.1142 7.07043 93.947 7.08861 93.7761 7.09588C86.8158 7.46298 83.6136 11.3375 83.5446 15.1321C83.4283 21.6309 89.2365 22.9466 94.3577 24.1133C98.2177 24.9856 101.551 25.7453 101.5 28.5949C101.463 30.7139 99.5044 32.1677 96.4513 32.4113V32.3749C96.0478 32.4076 95.6407 32.4294 95.23 32.4367C95.0846 32.4403 94.9429 32.4367 94.8011 32.4367C94.5758 32.4294 94.3541 32.4149 94.1323 32.4003C93.8089 32.3894 93.4854 32.3749 93.1728 32.3495C92.7003 32.3131 92.246 32.255 91.8025 32.1823C91.6499 32.1568 91.4936 32.135 91.3409 32.1059C91.2973 32.095 91.2501 32.0878 91.2064 32.0769C90.7012 31.9751 90.2105 31.8515 89.7271 31.7098C89.3419 31.5753 88.5968 31.3099 87.8408 31.0337C85.5691 30.0596 83.6464 28.6348 82.2434 26.8829C82.1525 26.7703 82.018 26.6976 81.8617 26.7012C81.6909 26.7012 81.5528 26.7921 81.4583 26.9156H81.4547C80.0226 28.7148 78.1071 30.2159 75.8827 31.2663C74.8214 31.6807 73.7201 32.1096 73.5457 32.1677L73.502 32.1823C73.3639 32.2259 73.2185 32.2622 73.0732 32.3022C72.935 32.3386 72.7933 32.3785 72.6515 32.4149C72.5279 32.4476 72.4044 32.473 72.2772 32.5021C72.0845 32.5457 71.8919 32.5857 71.7029 32.6221C71.6229 32.6366 71.543 32.6511 71.463 32.6657C71.194 32.7129 70.9214 32.7565 70.6488 32.7893L70.6052 32.7965C69.9728 32.8729 69.3295 32.9201 68.6752 32.931C68.279 32.9383 67.8865 32.931 67.4976 32.9092C63.0379 32.5748 60.8207 29.7834 60.9152 24.5858L60.9516 22.525C66.538 22.4523 76.1844 22.3251 76.8823 22.3142C77.8709 22.296 79.6482 22.3069 80.0226 21.1911L80.0662 20.6313C79.6773 10.8323 72.3862 7.4339 66.0583 7.54294C60.1047 7.64471 51.6469 12.148 51.4724 21.8598C51.2834 32.2368 59.4977 35.7842 67.2468 35.6534C69.0314 35.6243 70.6779 35.4244 72.1499 35.1445C75.7264 34.4939 78.9431 33.229 81.5528 31.5426L81.5673 31.5535C81.6546 31.4808 81.7636 31.4299 81.8872 31.4263C82.0144 31.4263 82.1271 31.4735 82.2143 31.5498H82.2216C85.9108 33.8324 90.8902 35.1881 96.404 35.0973V35.0573C103.455 34.8537 108.057 31.2736 108.151 25.8979C108.275 19.1557 102.238 17.8617 96.9056 16.7132L96.9201 16.7095ZM52.203 2.09459C52.2684 1.84016 52.3411 1.53122 52.3702 1.404C52.3774 1.38583 52.3774 1.36766 52.3811 1.34948V1.34222C52.3956 1.2986 52.4101 1.25498 52.4065 1.20773C52.4065 1.0369 52.3084 0.895153 52.1739 0.804286C52.1266 0.749767 52.0539 0.709785 51.9304 0.709785H51.8904H51.2252H49.1644H49.1535C49.0008 0.71342 48.8954 0.764306 48.8155 0.851537L48.7973 0.873345C48.7682 0.909692 48.7391 0.949673 48.7173 0.993289L48.7028 1.026C48.5865 1.28043 48.5356 1.65843 48.3938 2.09459L41.9823 22.7576L33.6226 1.18956H33.6153C33.5099 0.906057 33.2301 0.695247 32.9029 0.695247L24.2234 0.687978C23.9435 0.687978 23.7182 0.909692 23.7254 1.18229C23.7254 1.25135 23.74 1.31677 23.7654 1.37493C23.9617 1.94557 24.2125 2.65069 24.2888 2.8724C24.3688 3.09775 27.1202 10.4107 27.1202 10.4107L22.2425 24.0297L13.0941 1.16775H13.0904C12.9814 0.884249 12.7015 0.677073 12.3744 0.677073L1.02701 0.66617C0.612664 0.669804 0.281911 0.996923 0.28918 1.404L0.296449 1.43308C0.296449 1.46216 0.292815 1.49124 0.292815 1.52395C0.292815 1.57483 0.292814 2.10913 0.300084 2.15638L0.307353 2.17455L0.300084 2.20726C0.307353 2.61435 0.649011 2.9451 1.067 2.9451C1.09971 2.9451 1.13605 2.93783 1.16877 2.93419C1.25963 2.94146 1.3505 2.9451 1.45227 2.9451H2.5463C2.93884 2.97418 3.91293 3.145 4.29094 4.10819C6.78067 11.581 9.85559 18.8758 13.6974 29.2164L15.6129 34.4285C15.7256 34.7047 15.9982 34.8974 16.318 34.8974H22.0862C22.4024 34.901 22.6678 34.7084 22.7732 34.4394H22.7804L28.9339 15.9317L34.3822 30.9683L34.4041 30.9792L35.6326 34.3303C35.7053 34.6647 36.0142 34.9192 36.3777 34.9192H41.717C42.0332 34.9228 42.3022 34.7338 42.4112 34.4612H42.4148L42.8437 33.0728C42.8655 33.0073 42.8873 32.9455 42.9091 32.8765C42.9237 32.8256 42.9382 32.7711 42.9491 32.7202L43.0327 32.4549H43.0218C45.4716 23.4773 50.2003 10.2362 52.2102 2.09822L52.203 2.09459Z" fill="black"/>
</svg>
